<?xml version="1.0" encoding="UTF-8"?><svg id="Layer_1" xmlns="http://www.w3.org/2000/svg" viewBox="0 0 1024 1024"><defs><style>.cls-1{fill:#fff;}</style></defs><path class="cls-1" d="M487.56,171.74c-1.51.14-6.3.62-10.61.96-99.48,8.97-192.65,62.64-251.67,145.14-32.86,45.87-53.88,97.9-61.82,153.01-2.81,19.24-3.15,24.92-3.15,51s.34,31.77,3.15,51c19.03,131.52,112.62,242.02,239.55,282.96,22.73,7.33,46.69,12.32,73.94,15.34,10.61,1.16,56.48,1.16,67.09,0,47.03-5.2,86.88-16.84,126.18-36.9,6.02-3.08,7.19-3.9,6.37-4.59-.55-.41-26.22-34.85-57.03-76.47l-56-75.65-70.17-103.86c-38.61-57.1-70.38-103.79-70.65-103.79-.27-.07-.55,46.08-.68,102.42-.21,98.65-.27,102.63-1.51,104.95-1.78,3.35-3.15,4.72-6.02,6.23-2.19,1.1-4.11,1.3-14.45,1.3h-11.84l-3.15-1.99c-2.05-1.3-3.56-3.01-4.59-5l-1.44-3.08.14-137.27.21-137.34,2.12-2.67c1.1-1.44,3.42-3.29,5.07-4.18,2.81-1.37,3.9-1.51,15.75-1.51,13.97,0,16.29.55,19.92,4.52,1.03,1.1,39.02,58.33,84.48,127.27,45.46,68.94,107.62,163.08,138.16,209.29l55.45,84,2.81-1.85c24.85-16.16,51.14-39.16,71.95-63.12,44.3-50.87,72.84-112.89,82.43-179.03,2.81-19.24,3.15-24.92,3.15-51s-.34-31.77-3.15-51c-19.03-131.52-112.62-242.02-239.55-282.96-22.39-7.26-46.21-12.25-72.91-15.27-6.57-.68-51.83-1.44-57.51-.89h0ZM630.92,383.57c3.29,1.64,5.96,4.79,6.91,8.08.55,1.78.68,39.85.55,125.63l-.21,123.1-21.7-33.27-21.77-33.27v-89.48c0-57.85.27-90.37.68-91.95,1.1-3.83,3.49-6.85,6.78-8.63,2.81-1.44,3.83-1.57,14.58-1.57,10.13,0,11.91.14,14.17,1.37h0Z"/></svg>