<?xml version="1.0" encoding="UTF-8"?><svg id="Layer_1" xmlns="http://www.w3.org/2000/svg" viewBox="0 0 2500 1499"><defs><style>.cls-1{fill:#fff;}</style></defs><path class="cls-1" d="M1257.53,240.47c-225.73,0-366.81,111.69-423.25,335.03,84.66-111.69,183.42-153.55,296.27-125.64,64.4,15.93,110.42,62.17,161.38,113.34,82.99,83.36,179.03,179.83,388.85,179.83,225.71,0,366.81-111.69,423.23-335.06-84.64,111.69-183.39,153.57-296.27,125.66-64.38-15.93-110.4-62.17-161.36-113.34-82.99-83.36-179.05-179.83-388.85-179.83h0ZM834.28,743.03c-225.71,0-366.81,111.69-423.23,335.06,84.64-111.69,183.39-153.57,296.27-125.64,64.38,15.95,110.4,62.17,161.36,113.32,82.99,83.36,179.05,179.85,388.85,179.85,225.73,0,366.81-111.69,423.25-335.06-84.66,111.69-183.42,153.57-296.27,125.64-64.4-15.9-110.42-62.17-161.38-113.32-82.99-83.36-179.03-179.85-388.85-179.85h0Z"/></svg>